<svg width="1102" height="1376" xmlns="http://www.w3.org/2000/svg" preserveAspectRatio="xMidYMid meet">

 <g>
  <title>background</title>
  <rect fill="none" id="canvas_background" height="1376" width="1102" y="-1" x="-1"/>
 </g>
 <g>
  <title>Layer 1</title>
  <g id="svg_1" fill="#000000" transform="translate(0,2600) scale(0.1,-0.1) ">
   <path id="svg_2" d="m5424.999985,25816.006592c-47,-21 -2847,-2013 -2876,-2047c-14,-16 -31,-47 -38,-68c-8,-28 -11,-521 -11,-1872c0,-1765 1,-1835 19,-1874c10,-22 34,-54 52,-71c25,-23 422,-204 1449,-660c1275,-566 1421,-628 1475,-631l60,-4l1430,635c1317,585 1433,638 1466,676c21,23 41,59 48,84c8,32 11,551 11,1854c0,2010 5,1875 -67,1943c-52,50 -2808,2007 -2858,2030c-47,22 -117,24 -160,5zm1175,-1233l1080,-768l-1084,-3c-596,-1 -1576,-1 -2178,0l-1093,3l1085,772c597,425 1091,770 1097,768c7,-2 499,-350 1093,-772zm1158,-1103c-13,-39 -2254,-4137 -2260,-4132c-3,4 -511,934 -1128,2067c-617,1133 -1124,2063 -1127,2068c-2,4 1013,7 2257,7c1482,0 2261,-3 2258,-10zm-3681,-2190c619,-1136 1136,-2084 1149,-2108l25,-42l-58,25c-32,14 -556,247 -1165,517l-1108,492l0,1621c1,1493 2,1618 17,1590c9,-16 522,-959 1140,-2095zm4004,-1113c-10,-10 -2314,-1035 -2319,-1032c-1,1 521,962 1160,2135l1163,2133l3,-1613c1,-954 -2,-1618 -7,-1623z"/>
   <path id="svg_3" d="m4459.999985,18251.006592c-30,-9 -66,-23 -79,-31c-46,-24 -123,-104 -149,-155c-23,-43 -27,-62 -27,-135c0,-69 5,-94 24,-133c52,-106 167,-185 301,-206c88,-15 2041,-15 2130,-1c132,21 248,103 299,210c38,80 37,183 -2,262c-35,72 -119,149 -195,180l-57,23l-1095,2c-1025,2 -1099,1 -1150,-16z"/>
   <path id="svg_4" d="m4478.999985,17282.006592c-121,-32 -220,-116 -259,-219c-69,-184 50,-382 264,-439c42,-11 245,-14 1113,-14c1012,0 1064,1 1122,19c117,36 201,105 244,200c32,68 30,188 -3,256c-49,100 -155,178 -278,204c-37,8 -365,11 -1095,10c-950,0 -1048,-2 -1108,-17z"/>
   <path id="svg_5" d="m4459.999985,16301.006592c-75,-24 -96,-36 -153,-90c-68,-64 -100,-130 -101,-208c-1,-35 -2,-63 -4,-63c-2,0 -46,39 -98,87c-116,108 -139,122 -203,130c-67,8 -129,-16 -175,-67c-37,-41 -48,-71 -132,-362c-26,-93 -52,-168 -58,-168c-5,0 -313,133 -684,296c-424,186 -691,299 -719,302c-54,6 -118,-17 -159,-58c-26,-24 -1888,-3089 -1939,-3189c-36,-71 -14,-182 47,-237c84,-77 220,-73 295,8c12,12 423,687 913,1498c491,811 898,1481 904,1488c10,10 133,-40 620,-255c597,-262 608,-267 603,-292c-3,-14 -151,-523 -328,-1131c-351,-1206 -346,-1185 -300,-1267c14,-24 42,-55 64,-70c36,-25 49,-28 118,-28c70,0 81,3 120,30c23,17 50,46 60,65c10,19 163,532 339,1140c176,607 323,1106 325,1108c2,2 209,-86 460,-197c250,-110 470,-203 488,-207c23,-4 44,-22 75,-61c62,-77 161,-155 264,-209c268,-138 592,-128 856,27c31,19 102,79 157,133c80,80 110,103 150,117c28,9 245,103 484,208c239,105 438,188 442,184c4,-5 147,-492 318,-1083c172,-591 319,-1094 327,-1118c34,-91 104,-142 199,-142c119,0 206,86 206,203c0,39 -84,338 -330,1186c-182,624 -330,1136 -328,1137c22,17 1221,534 1226,528c4,-5 410,-674 902,-1488c492,-813 907,-1492 924,-1509c62,-63 161,-77 244,-35c83,43 130,156 101,244c-7,20 -442,747 -966,1613c-657,1086 -965,1586 -991,1609c-43,38 -101,56 -158,49c-22,-2 -343,-138 -720,-304l-680,-300l-17,51c-9,28 -43,141 -75,251c-54,188 -60,202 -98,240c-79,80 -193,85 -283,15l-26,-21l-19,37c-29,57 -102,123 -175,157l-67,32l-1095,2c-1025,2 -1099,1 -1150,-16zm-256,-935c113,-103 206,-190 206,-192c0,-1 -66,26 -147,62c-82,36 -189,83 -240,105l-91,40l19,67c11,37 22,77 25,90c4,13 10,22 14,20c5,-2 101,-88 214,-192zm2846,100c12,-43 18,-82 13,-86c-4,-4 -98,-47 -208,-95c-244,-107 -271,-118 -265,-112c108,106 426,385 431,380c4,-4 17,-43 29,-87z"/>
  </g>
 </g>
</svg>