<svg viewBox="0 0 160 160" version="1.1" id="svg_null">
<g id="root" stroke="none" stroke-width="1" fill="none" fill-rule="evenodd">
    <rect id="background" fill="#FFF" x="0" y="0" width="160" height="160"></rect>
    <g id="Group" transform="translate(28.000000, 22.000000)">
        <rect id="Rectangle-53" x="0" y="0" width="104" height="22"></rect>
        <text id="headerText.primary" font-family="Roboto" font-size="18" font-weight="700" fill="#658361" data-text-alignment="L" font-style="normal">
            <tspan x="0" y="17.5">ATAGL</tspan>
        </text>
    </g>
    <g id="Group-2" transform="translate(28.000000, 44.000000)">
        <rect id="Rectangle-54" x="0" y="0" width="80" height="12"></rect>
        <text id="captionText.primary" font-family="Roboto" font-size="10" font-weight="300" fill="#658361" data-text-alignment="L" font-style="normal">
            <tspan x="0" y="10">At A Glance</tspan>
        </text>
    </g>
    <path d="M31 105l0 8l9 0l0 -8l-9 0zm-3 -3l15 0l0 14l-15 0l0 -14zm3 19l0 8l9 0l0 -8l-9 0zm-3 -3l15 0l0 14l-15 0l0 -14zm101 -74l3 0l0 88l-3 0l0 -88zm-6 0l3 0l0 88l-3 0l0 -88zm-6 0l3 0l0 88l-3 0l0 -88zm-6 0l3 0l0 88l-3 0l0 -88z" id="shape.primary" fill="#658361" fill-rule="nonzero"></path>
    <path d="M63.587 101.207l-3.587 -4.591l0.788 -0.616l5.482 7.017l14.828 10.001l-0.56 0.83l-9.654 -6.513l-0.345 0.512l-1.046 -0.705l8.98 11.495l-0.787 0.615l-10.876 -13.92l-7.868 -5.307l2.532 3.24l-0.788 0.616l-4.427 -5.665l-27.259 -18.387l0.56 -0.829l9.654 6.512l0.345 -0.512l13.477 9.09l-10.036 -12.846l0.412 -0.321l-24.412 -23.575l0.695 -0.72l36.042 34.807l-0.694 0.719l-9.165 -8.85l9.841 12.596l7.868 5.307zm18.413 -3.378l0.56 -0.829l41.538 28.018l-0.56 0.83l-41.538 -28.019zm-9 2.787l0.788 -0.616l17.686 22.637l-0.788 0.615l-17.686 -22.636zm-39 -36.372l0.788 -0.615l17.686 22.636l-0.788 0.616l-17.686 -22.637z" id="shape.primary" fill="#658361"></path>
</g>
</svg>